<?xml version="1.0" encoding="utf-8"?>
<!-- Generator: Adobe Illustrator 22.1.0, SVG Export Plug-In . SVG Version: 6.00 Build 0)  -->
<svg version="1.1" id="Layer_1" xmlns="http://www.w3.org/2000/svg" xmlns:xlink="http://www.w3.org/1999/xlink" x="0px" y="0px"
	 width="169.7px" height="52px" viewBox="0 0 169.7 52" enable-background="new 0 0 169.7 52" xml:space="preserve">
<g>
	<g>
		<path fill="#1A565F" d="M16.8,33.1c-0.4,0.5-0.4,1.3,0.1,1.7l3,3l-5.8,5.8c-0.2,0.2-0.4,0.3-0.5,0.3c-0.2,0-0.4-0.2-0.4-0.7l0-5.2
			c0-0.7,0.4-1.7,0.9-2.2L16.8,33.1"/>
		<path fill="#1A565F" d="M23,33.1l9.8,9.8c0.5,0.5,0.9,1.5,0.9,2.2l0,5.2c0,0.4-0.2,0.7-0.4,0.7c-0.2,0-0.3-0.1-0.5-0.3L19.9,37.8
			l3-3C23.4,34.3,23.4,33.6,23,33.1"/>
		<path fill="#072C2F" d="M19.9,30.5c-0.3,0-0.7,0.1-0.9,0.4l-2.2,2.2c-0.4,0.5-0.4,1.3,0.1,1.7l3,3l3-3c0.5-0.5,0.5-1.2,0.1-1.7
			l-2.2-2.2C20.6,30.6,20.3,30.5,19.9,30.5L19.9,30.5"/>
	</g>
	<g>
		<path fill="#A4C03B" d="M44.5,11.9c0.7,0,0.9,0.4,0.4,0.9L32,25.7l-3-3c-0.3-0.3-0.6-0.4-0.9-0.4c-0.3,0-0.6,0.1-0.8,0.3l9.8-9.8
			c0.5-0.5,1.5-0.9,2.2-0.9L44.5,11.9L44.5,11.9"/>
		<path fill="#A4C03B" d="M32,25.7l12.9,12.9c0.5,0.5,0.3,0.9-0.4,0.9h0l-5.2,0c-0.7,0-1.7-0.4-2.2-0.9l-9.8-9.8
			c0.2,0.2,0.5,0.3,0.8,0.3c0.3,0,0.7-0.1,0.9-0.4L32,25.7"/>
		<path fill="#6DA943" d="M28.1,22.3c-0.3,0-0.6,0.1-0.8,0.3l-2.2,2.2c-0.3,0.3-0.4,0.7-0.4,1c0,0.3,0.2,0.6,0.4,0.8l2.2,2.2
			c0.2,0.2,0.5,0.3,0.8,0.3c0.3,0,0.7-0.1,0.9-0.4l3-3l-3-3C28.8,22.4,28.4,22.3,28.1,22.3"/>
	</g>
	<g>
		<path fill="#A4C03B" d="M7.8,25.7l3,3c0.3,0.3,0.6,0.4,0.9,0.4c0.3,0,0.6-0.1,0.8-0.3l-2.7,2.7c-0.5,0.5-1.5,0.9-2.2,0.9l-5.2,0h0
			c-0.7,0-0.9-0.4-0.4-0.9L7.8,25.7"/>
		<path fill="#A4C03B" d="M2.4,19L2.4,19l5.2,0c0.7,0,1.7,0.4,2.2,0.9l2.7,2.7c-0.2-0.2-0.5-0.3-0.8-0.3c-0.3,0-0.7,0.1-0.9,0.4
			l-3,3L2,19.9C1.5,19.4,1.7,19,2.4,19"/>
		<path fill="#6DA943" d="M11.7,22.3c-0.3,0-0.7,0.1-0.9,0.4l-3,3l3,3c0.3,0.3,0.6,0.4,0.9,0.4c0.3,0,0.6-0.1,0.8-0.3l2.2-2.2
			c0.2-0.2,0.3-0.5,0.4-0.8c0-0.4-0.1-0.7-0.4-1l-2.2-2.2C12.3,22.4,12,22.3,11.7,22.3"/>
	</g>
	<g>
		<path fill="#1A565F" d="M33.3,0.4c0.2,0,0.4,0.2,0.4,0.7l0,5.2c0,0.7-0.4,1.7-0.9,2.2L23,18.3c0.4-0.5,0.4-1.3-0.1-1.7l-3-3
			L32.8,0.7C33,0.5,33.1,0.4,33.3,0.4"/>
		<path fill="#1A565F" d="M13.6,7.5c0.1,0,0.3,0.1,0.5,0.3l5.8,5.8l-3,3c-0.5,0.5-0.5,1.2-0.1,1.7l-2.7-2.7
			c-0.5-0.5-0.9-1.5-0.9-2.2l0-5.2C13.2,7.7,13.4,7.5,13.6,7.5"/>
		<path fill="#072C2F" d="M19.9,13.5l-3,3c-0.5,0.5-0.5,1.2-0.1,1.7l2.2,2.2c0.2,0.2,0.6,0.4,0.9,0.4c0.3,0,0.6-0.1,0.9-0.4l2.2-2.2
			c0.4-0.5,0.4-1.3-0.1-1.7L19.9,13.5"/>
	</g>
	<path fill="#1A565F" d="M52,38.1c0.2,0,0.4,0,0.5,0.1c0.1,0,0.2,0,0.5,0c1.4,0,2-0.7,2-5.4V18.7c0-4.5-0.4-5.4-2-5.4
		c-0.2,0-0.4,0-0.5,0c-0.1,0-0.3,0.1-0.5,0.1c-0.4,0-0.7-0.2-0.7-0.6c0-0.4,0.3-0.7,1.3-0.7c1,0,1.7,0.1,2.5,0.1
		c1,0.1,2.2,0.2,3.7,0.2c0.8,0,2.8-0.1,4.6-0.1c1.7-0.1,4.6-0.2,6.4-0.2c0.8,0,0.9,0.2,0.9,0.9c0,0.2-0.1,1.7-0.1,2.3
		c-0.2,1.4-0.3,1.6-0.7,1.6c-0.3,0-0.4-0.2-0.5-0.6c-0.3-0.8-0.6-1.3-1.6-1.6c-1.2-0.4-3.2-0.7-7.1-0.7h-1.8c-0.6,0-0.7,0.1-0.7,0.8
		v8.4c1.8,0.2,2.6,0.3,4.5,0.3c2.8,0,3.5-0.1,3.9-0.8c0.5-0.8,0.8-1.1,1.1-1.1c0.3,0,0.5,0.2,0.5,0.6c0,0.2-0.2,0.7-0.3,1.2
		c-0.2,0.7-0.4,1.3-0.4,1.7c0,0.2,0,0.5,0,0.8c0,0.2,0,0.5,0,0.8c0,1.1-0.3,1.4-0.7,1.4c-0.4,0-0.6-0.3-0.6-0.9
		c0-0.9-0.1-1.4-0.7-1.6c-0.4-0.1-1.7-0.3-3.4-0.3c-0.9,0-3.1,0.1-4,0.2V30c0,2.9,0.1,5.4,0.2,7.3c1.4,0.3,2.9,0.4,3.6,0.4
		c3.6,0,5.7-0.3,7.2-1.3c0.4-0.2,0.8-0.8,1.1-1.4c0.3-0.5,0.5-0.7,0.8-0.7c0.4,0,0.4,0.3,0.4,0.6c0,0.1-0.1,0.4-0.2,0.8
		c-0.1,0.3-0.3,0.8-0.5,1.7c-0.6,2.1-0.7,2.3-2,2.3c-2.2,0-4.3-0.1-7.5-0.2c-1.6-0.1-3.1-0.2-4.3-0.2c-1.2,0-2.2,0.1-2.8,0.2
		c-0.4,0.1-1.2,0.1-1.7,0.1c-0.8,0-1.1-0.3-1.1-0.7C51.2,38.4,51.5,38.1,52,38.1"/>
	<path fill="#1A565F" d="M75.1,38.2c1.4-0.5,2.2-1.6,4.4-4l3.1-4l-4.4-5.9c-1.1-1.4-2.1-2.2-3.3-2.5C74.3,21.6,74,21.3,74,21
		c0-0.2,0.3-0.5,0.8-0.5c1.1,0,2.1,0.2,3.5,0.2c1.3,0,1.8-0.2,3-0.2c1.1,0,1.4,0.2,1.4,0.6c0,0.4-0.4,0.6-1.2,0.7
		c-0.6,0-0.8,0.2-0.8,0.6c0,0.3,0.4,1,1,1.8l3,3.9l2.5-3.1c1.1-1.4,1.6-2.2,1.6-2.7c0-0.4-0.3-0.6-0.8-0.6c-0.9-0.1-1.2-0.3-1.2-0.7
		c0-0.3,0.3-0.6,1.2-0.6c0.9,0,1.8,0.2,3.2,0.2c1,0,1.4-0.2,2.1-0.2c0.5,0,0.8,0.2,0.8,0.5c0,0.3-0.2,0.5-1,0.8
		c-1.4,0.5-2.3,1.5-4.4,4l-2.9,3.6l4.8,6.3c1.1,1.4,1.9,2.2,3.1,2.5c0.6,0.1,0.9,0.4,0.9,0.7c0,0.2-0.3,0.5-0.8,0.5
		c-1.1,0-1.3-0.2-2.7-0.2c-1.9,0-2.4,0.2-3.6,0.2c-0.9,0-1.4-0.2-1.4-0.6c0-0.3,0.2-0.6,1.2-0.7c0.5,0,0.8-0.3,0.8-0.6
		c0-0.3-0.4-1-1-1.8l-3.3-4.3l-2.7,3.5c-0.8,1-1.5,2.2-1.5,2.7c0,0.4,0.2,0.6,0.8,0.6c0.8,0.1,1.2,0.2,1.2,0.7
		c0,0.3-0.3,0.6-1.2,0.6c-0.9,0-1.8-0.2-3-0.2c-1.2,0-1.7,0.2-2.4,0.2c-0.5,0-0.8-0.2-0.8-0.5C74.1,38.7,74.3,38.5,75.1,38.2"/>
	<path fill="#1A565F" d="M105.2,20.2c4.5,0.1,7.1,3.5,7,7.5c0,1.3-0.4,1.7-1.2,1.8c-0.9,0.1-8.1,0.2-12.1,0.5
		c0.2,4.7,2.6,7.6,6.6,7.7c1.5,0,3.3-0.5,4.5-1.6c0.6-0.5,0.8-0.7,1.2-0.7c0.4,0,0.6,0.5,0.6,0.9c0,0.6-0.9,1.4-2.4,2.3
		c-1.4,0.8-3.4,1.1-5.2,1c-5.6-0.2-8.9-4.4-8.8-9.9C95.6,23.9,100,20.1,105.2,20.2 M108.2,28.1c0.5,0,0.8-0.2,0.8-1.3
		c0.1-3.1-2-5.1-4.6-5.1c-2.9-0.1-5.4,2.5-5.6,6.9C102,28.5,105.3,28.3,108.2,28.1"/>
	<path fill="#1A565F" d="M138.6,20.2c4.5,0.1,7.1,3.5,7,7.5c0,1.3-0.4,1.7-1.2,1.8c-0.9,0.1-8.1,0.2-12.1,0.5
		c0.2,4.7,2.6,7.6,6.6,7.7c1.5,0,3.3-0.5,4.5-1.6c0.6-0.5,0.8-0.7,1.2-0.7c0.4,0,0.6,0.5,0.6,0.9c0,0.6-0.9,1.4-2.4,2.3
		c-1.4,0.8-3.4,1.1-5.2,1c-5.6-0.2-8.9-4.4-8.8-9.9C129,23.9,133.4,20.1,138.6,20.2 M141.6,28.1c0.5,0,0.8-0.2,0.8-1.3
		c0.1-3.1-2-5.1-4.6-5.1c-2.9-0.1-5.4,2.5-5.6,6.9C135.4,28.5,138.7,28.3,141.6,28.1"/>
	<path fill="#1A565F" d="M117,22.7h-1.2c-1,0-1.4-0.3-1.4-0.7c0-0.4,0.3-0.6,0.7-0.7c1.1-0.3,1.8-0.9,2.3-1.7c0.6-1.2,0.8-2.1,1.2-3
		c0.3-0.8,0.5-1.1,0.9-1.1c0.5,0,0.6,0.4,0.6,1.1V21l5.6-0.1c0.4,0,0.7,1,0.7,1.3c0,0.4-0.2,0.5-0.6,0.5l-5.7-0.1v11.1
		c0,3,1,3.9,2.5,3.9c0.9,0,1.5-0.2,2-0.6c0.6-0.5,0.8-0.7,1.2-0.7c0.4,0,0.7,0.5,0.7,0.8c0,0.4-0.5,0.9-1.8,1.7
		c-1.2,0.6-2.2,0.8-3.3,0.8c-3,0-4.5-2.1-4.5-5.6V22.7z"/>
	<path fill="#1A565F" d="M148.8,38.1c0.2,0,0.4,0,0.5,0.1c0.1,0,0.3,0,0.5,0c1.2,0,1.5-0.6,1.5-5.4v-6c0-1.3,0-2.2-0.3-2.8
		c-0.3-0.5-0.9-0.7-1.5-0.8c-0.7-0.1-1-0.3-1-0.7c0-0.2,0.1-0.5,1-0.7c1.4-0.3,2.8-0.7,3.7-1.2c0.7-0.4,1-0.5,1.3-0.5
		c0.3,0,0.5,0.2,0.5,0.5c0,0.3-0.2,0.6-0.3,1c-0.1,0.5-0.2,1.3-0.3,2.6c1.6-2.8,3.9-3.9,5.6-3.9c1.5,0,2.5,1,2.5,2.3
		c0,1.1-1,1.9-1.6,1.9c-0.4,0-0.6-0.2-1-1.1c-0.3-0.6-0.8-0.9-1.2-0.9c-1.3,0-3,1.5-4.2,4.2v6c0,5.1,0.1,5.4,1.6,5.4
		c0.3,0,0.7,0,1-0.1c0.3,0,0.5-0.1,0.8-0.1c0.5,0,0.9,0.3,0.9,0.7c0,0.5-0.5,0.7-1.5,0.7c-0.7,0-1.4-0.1-2.1-0.2
		c-0.7-0.1-1.4-0.1-2.1-0.1c-0.7,0-1.3,0.1-1.9,0.1c-0.6,0.1-1.1,0.2-1.7,0.2c-1,0-1.3-0.3-1.3-0.7C148,38.4,148.3,38.1,148.8,38.1"
		/>
	<path fill="#1A565F" d="M164,17.8L164,17.8c0-1.2,1-2.2,2.2-2.2c1.2,0,2.1,1,2.1,2.1v0c0,1.2-1,2.2-2.2,2.2
		C164.9,20,164,19,164,17.8 M168,17.8L168,17.8c0-1.1-0.8-1.9-1.9-1.9c-1.1,0-1.9,0.9-1.9,1.9v0c0,1.1,0.8,1.9,1.9,1.9
		C167.2,19.7,168,18.9,168,17.8 M165.2,16.6h1c0.3,0,0.5,0.1,0.7,0.2c0.1,0.1,0.2,0.3,0.2,0.5v0c0,0.4-0.2,0.6-0.5,0.7l0.6,0.8h-0.6
		l-0.5-0.7h0h-0.4v0.7h-0.5V16.6z M166.2,17.7c0.3,0,0.4-0.1,0.4-0.3v0c0-0.2-0.2-0.3-0.4-0.3h-0.5v0.7H166.2z"/>
</g>
</svg>
